<?xml version="1.0" encoding="UTF-8" standalone="no"?>
<!DOCTYPE svg PUBLIC "-//W3C//DTD SVG 1.1//EN"
 "http://www.w3.org/Graphics/SVG/1.1/DTD/svg11.dtd">
<!-- Generated by graphviz version 2.36.0 (20140111.2315)
 -->
<!-- Title: G Pages: 1 -->
<svg width="155pt" height="220pt"
 viewBox="0.00 0.00 155.00 220.00" xmlns="http://www.w3.org/2000/svg" xmlns:xlink="http://www.w3.org/1999/xlink">
<g id="graph0" class="graph" transform="scale(1 1) rotate(0) translate(4 216)">
<title>G</title>
<polygon fill="white" stroke="none" points="-4,4 -4,-216 151,-216 151,4 -4,4"/>
<!-- 0 -->
<g id="node1" class="node"><title>0</title>
<ellipse fill="none" stroke="black" cx="61" cy="-106" rx="48.1437" ry="18"/>
<text text-anchor="middle" x="61" y="-102.3" font-family="Times,serif" font-size="14.00">Trekphiler</text>
</g>
<!-- 1 -->
<g id="node2" class="node"><title>1</title>
<ellipse fill="none" stroke="black" cx="61" cy="-18" rx="61.6163" ry="18"/>
<text text-anchor="middle" x="61" y="-14.3" font-family="Times,serif" font-size="14.00">217.15.37.209</text>
</g>
<!-- 0&#45;&gt;1 -->
<g id="edge1" class="edge"><title>0&#45;&gt;1</title>
<path fill="none" stroke="black" d="M61,-87.5966C61,-75.7459 61,-59.8169 61,-46.2917"/>
<polygon fill="black" stroke="black" points="64.5001,-46.084 61,-36.084 57.5001,-46.084 64.5001,-46.084"/>
<text text-anchor="middle" x="64.5" y="-58.3" font-family="Times,serif" font-size="14.00">1</text>
</g>
<!-- 2 -->
<g id="node3" class="node"><title>2</title>
<ellipse fill="none" stroke="black" cx="61" cy="-194" rx="61.6163" ry="18"/>
<text text-anchor="middle" x="61" y="-190.3" font-family="Times,serif" font-size="14.00">Takashi kurita</text>
</g>
<!-- 2&#45;&gt;0 -->
<g id="edge2" class="edge"><title>2&#45;&gt;0</title>
<path fill="none" stroke="black" d="M61,-175.597C61,-163.746 61,-147.817 61,-134.292"/>
<polygon fill="black" stroke="black" points="64.5001,-134.084 61,-124.084 57.5001,-134.084 64.5001,-134.084"/>
<text text-anchor="middle" x="64.5" y="-146.3" font-family="Times,serif" font-size="14.00">1</text>
</g>
<!-- 2&#45;&gt;2 -->
<g id="edge3" class="edge"><title>2&#45;&gt;2</title>
<path fill="none" stroke="black" d="M116.01,-202.137C129.738,-201.568 140,-198.855 140,-194 140,-190.434 134.466,-188.024 126.089,-186.77"/>
<polygon fill="black" stroke="black" points="126.283,-183.274 116.01,-185.863 125.656,-190.246 126.283,-183.274"/>
<text text-anchor="middle" x="143.5" y="-190.3" font-family="Times,serif" font-size="14.00">3</text>
</g>
</g>
</svg>
